# .PCD v0.7 - Point Cloud Data file format
VERSION 0.7
FIELDS x y z rgb
SIZE 4 4 4 4
TYPE F F F F
COUNT 1 1 1 1
WIDTH 100
HEIGHT 1
VIEWPOINT 0 0 0 1 0 0 0
POINTS 100
DATA ascii
0.0 0.0 0.0 16711680
0.5 0.2 0.1 16711680
-0.3 0.4 0.2 65280
0.1 -0.5 0.3 255
0.2 0.3 -0.1 16776960
-0.4 -0.2 0.5 16711935
0.6 0.1 0.4 65535
-0.1 0.6 -0.2 16777215
0.3 -0.3 0.6 8388863
-0.5 0.5 0.1 16744448
0.4 0.4 0.3 8421504
-0.2 -0.4 0.4 32768
0.7 0.0 0.2 128
-0.6 0.3 0.3 8388608
0.1 0.7 0.1 32896
-0.3 -0.1 0.7 8421376
0.5 -0.2 0.5 16777215
-0.1 0.5 -0.3 16711680
0.8 0.2 0.0 65280
-0.4 0.6 0.2 255
0.2 -0.6 0.6 16776960
-0.5 -0.3 0.8 16711935
0.6 0.3 0.1 65535
-0.2 0.8 -0.1 16777215
0.3 -0.4 0.9 8388863
-0.7 0.1 0.4 16744448
0.4 0.5 0.2 8421504
-0.3 -0.5 0.7 32768
0.9 0.0 0.3 128
-0.1 0.7 0.0 8388608
0.5 -0.1 0.8 32896
-0.6 0.4 -0.2 8421376
0.2 0.9 0.1 16777215
-0.4 -0.2 1.0 16711680
0.7 0.1 0.5 65280
-0.3 0.9 -0.1 255
0.1 -0.7 0.9 16776960
-0.8 0.0 0.6 16711935
0.6 0.4 0.3 65535
-0.2 1.0 -0.2 16777215
0.4 -0.3 1.1 8388863
-0.9 0.2 0.5 16744448
0.3 0.7 0.4 8421504
-0.5 -0.4 0.9 32768
1.0 0.1 0.2 128
-0.1 0.8 0.1 8388608
0.8 -0.1 0.7 32896
-0.7 0.5 -0.3 8421376
0.2 1.1 0.0 16777215
-0.3 -0.3 1.2 16711680
0.9 0.2 0.6 65280
-0.4 1.0 -0.2 255
0.1 -0.8 1.0 16776960
-1.0 0.1 0.7 16711935
0.7 0.5 0.4 65535
-0.2 1.1 -0.3 16777215
0.5 -0.2 1.3 8388863
-1.1 0.3 0.6 16744448
0.4 0.8 0.5 8421504
-0.6 -0.5 1.1 32768
1.1 0.0 0.3 128
-0.1 0.9 0.2 8388608
0.9 -0.2 0.8 32896
-0.8 0.6 -0.4 8421376
0.3 1.2 -0.1 16777215
-0.4 -0.4 1.4 16711680
1.0 0.3 0.7 65280
-0.5 1.1 -0.3 255
0.2 -0.9 1.1 16776960
-1.1 0.2 0.8 16711935
0.8 0.6 0.5 65535
-0.3 1.2 -0.4 16777215
0.6 -0.3 1.5 8388863
-1.2 0.4 0.7 16744448
0.5 0.9 0.6 8421504
-0.7 -0.6 1.3 32768
1.2 0.1 0.4 128
-0.2 1.0 0.3 8388608
1.0 -0.3 0.9 32896
-0.9 0.7 -0.5 8421376
0.4 1.3 -0.2 16777215
-0.5 -0.5 1.6 16711680
1.1 0.4 0.8 65280
-0.6 1.2 -0.4 255
0.3 -1.0 1.2 16776960
-1.2 0.3 0.9 16711935
0.9 0.7 0.6 65535
-0.4 1.3 -0.5 16777215
0.7 -0.4 1.7 8388863
-1.3 0.5 0.8 16744448
0.6 1.0 0.7 8421504
-0.8 -0.7 1.5 32768
1.3 0.2 0.5 128
-0.3 1.1 0.4 8388608
1.1 -0.4 1.0 32896
-1.0 0.8 -0.6 8421376
0.5 1.4 -0.3 16777215
-0.6 -0.6 1.8 16711680
1.2 0.5 0.9 65280
